<?xml version="1.0" encoding="UTF-8"?>
<svg id="Vectors" xmlns="http://www.w3.org/2000/svg" version="1.1" viewBox="0 0 240.9 57.17">
  <!-- Generator: Adobe Illustrator 30.2.1, SVG Export Plug-In . SVG Version: 2.1.1 Build 1)  -->
  <defs>
    <style>
      .st0 {
        isolation: isolate;
      }
    </style>
  </defs>
  <rect x="143.4" y=".57" width="3" height="56.3"/>
  <g class="st0">
    <g class="st0">
      <g class="st0">
        <g class="st0">
          <path d="M0,25.16l3.49-3.29c2.07,2.43,4.26,3.73,7.47,3.73,2.76,0,4.91-1.7,4.91-4.3v-.08c0-2.8-2.52-4.38-6.53-4.38h-2.31l-.81-3.12,7.67-8.16H1.58V1.22h18.79v3.73l-7.91,8.11c4.3.53,8.36,2.72,8.36,7.95v.08c0,5.23-4.02,9.01-9.94,9.01-4.99,0-8.44-2.03-10.87-4.95Z"/>
          <path d="M26.98,1.22h10.59c8.93,0,15.09,6.13,15.09,14.12v.08c0,7.99-6.17,14.2-15.09,14.2h-10.59V1.22ZM31.98,5.76v19.31h5.6c5.96,0,9.86-4.02,9.86-9.58v-.08c0-5.56-3.9-9.66-9.86-9.66h-5.6Z"/>
          <path d="M58.72,1.22h4.99v23.86h14.93v4.54h-19.92V1.22Z"/>
          <path d="M81.77,23.45v-.08c0-4.67,3.65-6.9,8.89-6.9,2.43,0,4.1.37,5.76.89v-.53c0-3.08-1.87-4.67-5.32-4.67-2.43,0-4.18.53-6.13,1.34l-1.34-3.85c2.39-1.01,4.71-1.75,8.11-1.75,3.21,0,5.56.81,7.1,2.39,1.58,1.58,2.31,3.81,2.31,6.61v12.7h-4.79v-2.68c-1.46,1.74-3.69,3.12-6.98,3.12-4.02,0-7.63-2.27-7.63-6.61ZM96.5,21.91v-1.46c-1.26-.49-2.92-.85-4.87-.85-3.21,0-5.03,1.3-5.03,3.57v.08c0,2.07,1.79,3.25,4.18,3.25,3.25,0,5.72-1.83,5.72-4.58Z"/>
          <path d="M111.96,26.29v3.33h-4.95V0h4.95v11.77c1.58-2.23,3.77-4.02,7.3-4.02,5.03,0,9.94,3.98,9.94,11.12v.08c0,7.14-4.87,11.12-9.94,11.12-3.57,0-5.8-1.79-7.3-3.77ZM124.21,18.95v-.08c0-4.14-2.84-6.86-6.13-6.86s-6.25,2.76-6.25,6.86v.08c0,4.1,2.88,6.86,6.25,6.86s6.13-2.64,6.13-6.86Z"/>
        </g>
      </g>
    </g>
  </g>
  <path d="M71.08,56.97c3,0,4.5-2.3,4.5-4.7s-1.3-4.3-4.1-4.3c-3,0-4.5,2.3-4.5,4.7s1.3,4.3,4.1,4.3M71.28,55.77c-1.4,0-2.3-1.4-2.3-3.3s.8-3.3,2.3-3.3c1.4,0,2.3,1.4,2.3,3.3s-.9,3.3-2.3,3.3M94.48,44.87c0-.3-.1-.4-.4-.4h-2.6c-.2,0-.2.1-.2.3v.2c0,.3.1.3.5.4l.8.2v3c-.3-.3-1-.7-2-.7-1.9,0-4.1,1.4-4.1,4.8,0,3,1.7,4.2,3.3,4.2,1,0,1.9-.5,2.8-1.4v.7c0,.3.1.4.4.4h2.6c.2,0,.2-.1.2-.3v-.2c0-.3-.1-.3-.5-.4l-.8-.2s0-10.6,0-10.6ZM92.58,54.47c-.6.6-1.2,1-2,1-1.4,0-2-1.5-2-3.1,0-2,.9-3.2,2.1-3.2,1.4,0,1.8,1.3,1.8,3.2l.1,2.1h0ZM65.78,52.17c0-2.9-1.6-4.2-3.3-4.2-1,0-1.9.5-2.8,1.4v-4.5c0-.3-.1-.4-.4-.4h-2.5c-.2,0-.2.1-.2.3v.2c0,.3.1.3.5.4l.8.2v10c0,.2,0,.4.3.6.6.3,1.9.7,3.2.7,2.8.1,4.4-1.8,4.4-4.7M63.68,52.57c0,2.2-1.1,3.3-2.4,3.3s-1.6-1.2-1.6-2.5v-2.9c.6-.6,1.2-1,2-1,1.4,0,2,1.5,2,3.1M46.68,56.77c.2,0,.2-.1.2-.3v-.2c0-.3-.1-.3-.5-.4l-.8-.2v-4.8c0-2.1-1.5-2.8-3.4-2.8-1.1,0-2.1.2-2.2.3-.5.1-.6.3-.6.7l-.1.9c0,.13.07.2.2.2.2,0,.4-.1.5-.2.6-.3,1.5-.6,2.2-.6,1.5,0,1.6,1,1.6,1.7v.9l-3.2.6c-1.1.2-1.7.7-1.7,2,0,1.4.7,2.4,2.2,2.4,1,0,1.7-.3,2.7-1.3v.6c0,.3.1.4.4.4l2.5.1h0ZM84.58,48.67c0-.3-.1-.4-.4-.4h-2.6c-.2,0-.2.1-.2.3v.2c0,.3.1.3.5.4l.8.2v5.1c-.7.8-1.2,1-2,1-1.4,0-1.5-1-1.5-2.8v-4.1c0-.3-.1-.4-.4-.4h-2.6c-.2,0-.2.1-.2.3v.2c0,.3.1.3.5.4l.8.2v4.3c0,2.7,1.3,3.3,2.5,3.3s2-.5,2.8-1.4v.7c0,.3.1.4.4.4h2.6c.2,0,.2-.1.2-.3v-.2c0-.3-.1-.3-.5-.4l-.8-.2.1-6.8h0ZM55.38,44.87c0-.3-.1-.4-.4-.4h-2.6c-.2,0-.2.1-.2.3v.2c0,.3.1.3.5.4l.8.2v3c-.3-.3-1-.7-2-.7-1.9,0-4.1,1.4-4.1,4.8,0,3,1.7,4.2,3.3,4.2,1,0,1.9-.5,2.8-1.4v.7c0,.3.1.4.4.4h2.6c.2,0,.2-.1.2-.3v-.2c0-.3-.1-.3-.5-.4l-.8-.2s0-10.6,0-10.6ZM53.48,54.47c-.6.6-1.2,1-2,1-1.4,0-2-1.5-2-3.1,0-2,.9-3.2,2.1-3.2,1.3,0,1.8,1.3,1.8,3.2v2.1h.1ZM40.78,54.47c0-.9.5-1,1-1.1l1.9-.5v1.9c-.7.6-1.3.8-1.8.8s-1.1-.2-1.1-1.1M33.88,50.57c1.5-.5,2.6-1.6,2.6-3.2,0-2.3-2.3-2.9-4.3-2.9h-4.7c-.2,0-.2.1-.2.3v.3c0,.3.1.3.5.4l.8.2v9.8l-.8.2c-.4.1-.5.1-.5.4v.3c0,.2,0,.3.2.3h4.2c.2,0,.2-.1.2-.3v-.3c0-.3-.1-.3-.5-.4l-.8-.2v-4.6h1.1c.8,1.8,2.5,4.8,3.1,5.6.2.3.3.3.6.3h2.4c.2,0,.2-.1.2-.3v-.3c0-.3-.2-.3-.5-.4-.5-.1-.6-.2-1-.7-.4-.9-1.8-2.9-2.6-4.5M31.58,45.57c1.6,0,2.5.6,2.5,2.1,0,1.8-1.4,2.2-3,2.2h-.3v-4.3h.8Z"/>
  <path d="M108.08,56.57c0,.1.1.2.2.2h1.4c.2,0,.2-.1.2-.2v-5.8c.5-.8,1.2-1.1,2-1.1,1.4,0,1.4,1,1.4,2.5v4.4c0,.1.1.2.2.2h1.4c.2,0,.2-.1.2-.2v-5.8c.5-.8,1.2-1.1,2-1.1,1.4,0,1.4,1,1.4,2.5v4.4c0,.1.1.2.2.2h1.4c.2,0,.2-.1.2-.2v-4.9c0-3-1.3-3.6-2.8-3.6-1.2,0-2.1.5-2.9,1.4-.5-1.1-1.4-1.4-2.3-1.4-1.1,0-1.8.4-2.5,1.3h-.1v-.9c0-.1-.1-.2-.2-.2h-1.4c-.2,0-.2.1-.2.2v8.1h.2ZM97.48,48.27c-.2,0-.2.1-.2.3v.2c0,.3.1.3.5.4l.8.2v4c0,3,1.3,3.6,2.7,3.6,1.1,0,1.8-.4,2.5-1.3h.1v.9c0,.1.1.2.2.2h1.4c.2,0,.2-.1.2-.2v-8.1c0-.1-.1-.2-.2-.2h-1.4c-.2,0-.2.1-.2.2v5.8c-.5.8-1.2,1.1-2,1.1-1.4,0-1.4-1-1.4-2.5v-4.4c0-.1-.1-.2-.2-.2h-2.8ZM128.88,48.57c0-.2-.1-.2-.2-.3-.4-.2-1.2-.3-1.9-.3-3.5,0-4.4,2.4-4.4,4.5s.9,4.5,4.4,4.5c.8,0,1.5-.1,1.9-.3.13-.07.2-.17.2-.3v-1.3c0-.1,0-.2-.1-.2s-.1,0-.3.1c-.3.1-.9.4-1.7.4-1.6,0-2.6-1-2.6-3s1-2.9,2.6-2.9c.8,0,1.4.3,1.7.4.13.07.23.1.3.1.1,0,.1-.1.1-.2v-1.2Z"/>
  <path d="M209.7,50.57c1-.8,1.9-1.6,2.7-2.5.5-.5.9-1,1.3-1.5,4-4.9,6.4-11.1,6.4-17.8s-2.4-13-6.4-17.8c-.4-.5-.9-1-1.3-1.5-.8-.9-1.7-1.7-2.7-2.5-4.9-4-11.1-6.4-17.9-6.4h-28c-1.8,0-3.2,1.4-3.2,3.2s1.4,3.2,3.2,3.2h28c4.7,0,9,1.5,12.6,4,.1.1.2.1.3.2,5.5,4,9,10.4,9,17.7s-3.6,13.7-9,17.7c-.1.1-.2.1-.3.2-3.6,2.5-7.9,4-12.6,4h-28c-1.8,0-3.2,1.4-3.2,3.2s1.4,3.2,3.2,3.2h28c6.7-.2,13-2.6,17.9-6.6"/>
  <path d="M215.7,6.97c1.4,1.6,2.7,3.3,3.8,5.2,2.7,4.5,4.3,9.8,4.5,15.4v2.2c-.2,5.6-1.8,10.8-4.5,15.4-1.1,1.9-2.4,3.6-3.8,5.2-2.1,2.3-4.5,4.3-7.1,5.9,5.5-1.3,10.4-4.2,14.2-8.2,4.8-5.1,7.7-11.9,7.7-19.4s-2.9-14.3-7.7-19.4c-3.8-4-8.7-6.9-14.2-8.2,2.6,1.7,5,3.6,7.1,5.9"/>
  <path d="M219,1.07c9,5.5,15.1,15.3,15.4,26.4v2.2c-.4,11.2-6.5,20.9-15.4,26.4,12.5-2.9,21.9-14.2,21.9-27.6s-9.4-24.4-21.9-27.4"/>
</svg>